inDegrees=yes
name=ik_lifting_orientations
DataType=double
version=3
OpenSimVersion=4.5-2024-01-10-34fd6af
endheader
time	pelvis_tilt	pelvis_list	pelvis_rotation	pelvis_tx	pelvis_ty	pelvis_tz	hip_flexion_r	hip_adduction_r	hip_rotation_r	knee_angle_r	knee_angle_r_beta	ankle_angle_r	subtalar_angle_r	mtp_angle_r	hip_flexion_l	hip_adduction_l	hip_rotation_l	knee_angle_l	knee_angle_l_beta	ankle_angle_l	subtalar_angle_l	mtp_angle_l	lumbar_extension	lumbar_bending	lumbar_rotation	arm_flex_r	arm_add_r	arm_rot_r	elbow_flex_r	pro_sup_r	wrist_flex_r	wrist_dev_r	arm_flex_l	arm_add_l	arm_rot_l	elbow_flex_l	pro_sup_l	wrist_flex_l	wrist_dev_l
2.25	-0.008357475605713628	-0.007219466428265955	-89.9691605163536	0	0.9399999998679526	0	44.99597516883391	-10.10224615102721	0	59.99813505404639	1.047165001749335	-5.023033094928022	0	0	44.99597516883391	-10.10224615102721	0	59.99813505404639	1.047165001749335	-5.023033094928022	0	0	-0.01642404743857781	0.005577401563430109	-0.05007891735147962	124.347136860521	15.25507349292717	-15.6896161971337	0.01906277924402151	1.365676730651296	0	0	0	-12.05294350037192	0	88.66128560955559	1.365676730651296	0	0
2.26	0.002034018410805629	-0.003346532218460773	-89.98904000137547	0	0.9399999998679526	0	44.99597609922197	-10.10216338014117	0	59.99813541724671	1.047165008088377	-5.023008761680505	0	0	44.99597609922197	-10.10216338014117	0	59.99813541724671	1.047165008088377	-5.023008761680505	0	0	-0.005995319541317683	-0.001535687577122041	-0.01323927306684567	124.0148124901932	14.91973890268408	-15.57794929900576	0.02062078483178921	1.365457194817748	0	0	0	-12.0532920526938	0	88.66150078136579	1.365457194817748	0	0
2.27	-0.0005685231553127645	-0.01708011935623634	-89.99271860273863	0	0.9399999998679526	0	44.9959763767218	-10.10213885255438	0	59.99813552608418	1.047165009987949	-5.023001561213342	0	0	44.9959763767218	-10.10213885255438	0	59.99813552608418	1.047165009987949	-5.023001561213342	0	0	-0.03382502412461157	-0.01122504359823599	-0.05051460288915677	123.8141436381899	14.79097189368256	-15.49828396440359	0.02275325074138145	1.365391593859114	0	0	0	-12.05339636734337	0	88.66156507828633	1.365391593859114	0	0
2.28	0.0001323149173634487	-0.02459117879156991	-89.98355627644703	0	0.9399999998679526	0	44.99597657826253	-10.1021210802277	0	59.9981356052535	1.047165011369714	-5.022996346690462	0	0	44.99597657826253	-10.1021210802277	0	59.9981356052535	1.047165011369714	-5.022996346690462	0	0	-0.01920878460624516	-0.02925107667867769	-0.01627465735185533	123.7527582901655	14.86432350738852	-15.4593719707305	0.02518618171915576	1.365343919628458	0	0	0	-12.0534722151874	0	88.66161180483358	1.365343919628458	0	0
2.29	0.01439202278975236	-0.02116210395210318	-89.98955463829896	0	0.9399999998679526	0	44.99597687072616	-10.10209520059409	0	59.9981357198177	1.047165013369237	-5.022988748432384	0	0	44.99597687072616	-10.10209520059409	0	59.9981357198177	1.047165013369237	-5.022988748432384	0	0	-0.02067370034901389	-0.03807750290777414	-0.02606651522095381	123.6480485150345	14.86629527458073	-15.34069583139255	0.02772747230460276	1.365274811900119	0	0	0	-12.05358206281559	0	88.6616795388139	1.365274811900119	0	0
2.3	0.009125679063503776	-0.03408358286645304	-89.98491014944076	0	0.9399999998679526	0	44.99597714105967	-10.10207130495847	0	59.99813582579444	1.04716501521888	-5.02298173435335	0	0	44.99597714105967	-10.10207130495847	0	59.99813582579444	1.04716501521888	-5.02298173435335	0	0	-0.03596642133498216	-0.02581696982242536	-0.05354376752482061	123.4658222346999	14.73845162385911	-15.26841801467995	0.03203528876621345	1.365210913643547	0	0	0	-12.05368365629611	0	88.66174216687897	1.365210913643547	0	0
2.31	0.004418417376723108	-0.003211478191738589	-89.97823644391785	0	0.9399999998679526	0	44.99597800614085	-10.10199446996114	0	59.99813616365499	1.047165021115659	-5.022959159591597	0	0	44.99597800614085	-10.10199446996114	0	59.99813616365499	1.047165021115659	-5.022959159591597	0	0	-0.009131308921231278	-0.004768539551427117	-0.02229769916061482	123.1192300016229	14.29485115306251	-15.04564082626132	0.03837950398316991	1.365006730265002	0	0	0	-12.05400789961191	0	88.66194229141912	1.365006730265002	0	0
2.32	0.002168018949522506	-0.005987944708764596	-89.98509548123994	0	0.9399999998679526	0	44.9959789428532	-10.10191129649116	0	59.99813652942651	1.047165027499576	-5.02293472712197	0	0	44.9959789428532	-10.10191129649116	0	59.99813652942651	1.047165027499576	-5.02293472712197	0	0	-0.006710039469778752	-0.001557075431055994	-0.01798193265125247	122.7276549051773	13.76490912310554	-14.85149809559622	0.04739346069375344	1.364785643854868	0	0	0	-12.05435897371848	0	88.66215898298573	1.364785643854868	0	0
2.33	0.001919681810606319	-0.005870640606441564	-90.01234951885021	0	0.9399999998679526	0	44.99598020526945	-10.10179919041032	0	59.99813702211826	1.04716503609867	-5.022901799688575	0	0	44.99598020526945	-10.10179919041032	0	59.99813702211826	1.04716503609867	-5.022901799688575	0	0	0.004794694296161316	-0.003104375737543398	0.008317111130180304	122.2109302449423	13.07534956336758	-14.65471827676221	0.0608363265324969	1.364487727870672	0	0	0	-12.05483198103888	0	88.66245097687626	1.364487727870672	0	0
